<?xml version="1.0" encoding="UTF-8"?>
<svg id="_圖層_1" data-name=" 圖層 1" xmlns="http://www.w3.org/2000/svg" version="1.1" viewBox="0 0 300 300">
  <defs>
    <style>
      .cls-1 {
        fill: #fff;
      }

      .cls-1, .cls-2 {
        stroke-width: 0px;
      }

      .cls-2 {
        fill: #d91023;
      }
    </style>
  </defs>
  <path class="cls-1" d="M168.88,297.94c-1.14,0-2.05-.96-2.2-2.33-.06-.51-.05-1.07-.04-1.66,0-.25,0-.5,0-.75v-47.02c0-1.1-.9-2-2-2h-29.31c-1.1,0-2,.9-2,2v48.04c.01.7.02,1.35-.11,1.84-.44,1.65-1.43,1.86-2.24,1.86-.93,0-2.01-.25-2.38-2.06-.1-.47-.08-1.08-.06-1.72,0-.27.01-.54.01-.8,0-5.15,0-10.3-.01-15.46-.01-11.83-.02-24.06.03-36.09.04-11.06-3.87-20.57-11.62-28.25-15.54-15.39-31.08-30.79-46.6-46.2-2.41-2.4-4.86-3.56-7.49-3.56-.86,0-1.74.13-2.62.38-3.65,1.03-6.1,3.66-6.89,7.41-.88,4.16,1.28,7.19,3.51,9.6,7.77,8.42,15.53,16.86,23.28,25.3l8.07,8.78c.44.47.86.92,1.19,1.36.92,1.23.87,2.49-.12,3.39-.48.44-1.02.67-1.57.67-.6,0-1.19-.28-1.72-.81-2.04-2.07-4.05-4.28-5.99-6.42-.71-.78-1.41-1.55-2.13-2.33-2.47-2.69-4.93-5.38-7.4-8.07-5.69-6.21-11.56-12.63-17.4-18.89-3.32-3.55-4.84-7.39-4.77-12.1.08-6.34.06-12.78.04-19.01,0-2.66-.01-5.31-.01-7.97,0-2.42,1.02-2.84,1.98-3.04.23-.05.45-.08.65-.08.54,0,1.32.15,1.89,1.41.23.5.24,1.43.24,2.05.03,3.2.03,6.4.02,9.7v3.39c0,.61.28,1.19.76,1.57.36.28.79.43,1.23.43.16,0,.32-.02.48-.06.58-.14,1.15-.27,1.71-.39,1.47-.33,2.98-.66,4.44-1.23,1.78-.7,2.27-3.15,2.38-3.89,3.88-26.36,13.69-49.74,29.16-69.47,6.63-8.46,13.99-16.62,21.11-24.52,2.29-2.54,4.59-5.09,6.86-7.65,2.18-2.46,2.38-4.59.7-7.34-4.14-6.82-8.2-13.85-12.14-20.64l-2.64-4.56c-2.52-4.34-2.47-7.85.16-11.06,1.74-2.14,3.89-3.17,6.57-3.17,1.23,0,2.59.22,4.04.66,2.5.76,5,1.14,7.44,1.14,3.53,0,7.07-.81,10.5-2.4,2.31-1.06,4.7-1.9,7.24-2.8,1.05-.37,2.09-.74,3.13-1.13h8.62c1.06.43,2.12.85,3.19,1.28,3.08,1.25,6.27,2.53,9.45,3.71,2.42.9,4.99,1.35,7.64,1.35h0c2.69,0,5.5-.45,8.57-1.39.98-.3,1.98-.45,2.97-.45,2.54,0,4.93,1.03,6.57,2.83,1.59,1.75,2.34,4.06,2.11,6.53-.13,1.4-.74,3.09-1.77,4.89-4.71,8.29-9.77,16.95-15.02,25.75-1.44,2.42-1.25,4.4.64,6.4,2.96,3.15,5.88,6.46,8.71,9.67l1.81,2.05c1.51,1.71,1.69,3.11.52,4.16-.5.45-.97.67-1.44.67-.74,0-1.67-.57-2.59-1.6l-1.89-2.09c-3.04-3.36-6.19-6.83-9.14-10.35-1.69-2-3.58-2.93-5.95-2.93-.25,0-.51.01-.77.03-.7.06-1.44.08-2.41.08-.63,0-1.28-.01-1.97-.02-.8-.01-1.64-.03-2.56-.03-.78,0-1.49.45-1.82,1.16-.33.71-.21,1.54.3,2.14l.1.12c1.09,1.27,1.85,2.15,2.61,3.03,8.44,9.82,12.94,21.37,13.37,34.3.05,1.41-.24,2.52-.81,3.11-.36.38-.87.57-1.53.57h-.01c-.65,0-2.28-.02-2.43-3.77-.61-15.16-7.22-28.04-19.65-38.29-.37-.3-.82-.46-1.27-.46s-.91.15-1.28.46c-12.13,10.12-18.51,22.07-19.48,36.55-.05.78-.1,1.55-.16,2.32-.11,1.45-.6,3.17-2.36,3.17-2.09-.07-2.45-1.94-2.4-3.51.43-13.18,5.03-24.88,13.65-34.78.64-.73,1.27-1.46,1.89-2.2.57-.65.52-1.4.5-1.66,0-.06-.01-.15-.01-.29,0-1.1-.9-2-2-2-.75,0-3.77-.01-4.53-.01-1.38,0-2.77.01-4.15.05-1.14.04-2.42.65-3.18,1.53-3.67,4.28-7.54,8.52-11.29,12.63-9.77,10.71-19.86,21.78-27.52,34.65-10.2,17.13-16.69,35.64-19.28,55.04-.32,2.44.58,3.81,2.03,5.13,4.16,3.74,8.22,7.75,12.15,11.63l1.1,1.08c14.22,14.04,25.85,25.57,36.61,36.29,6.88,6.85,10.95,15.01,12.12,24.26.46,3.59,2.8,4.34,4.69,4.34h5.94c6.42,0,12.83,0,19.25.04,1.48,0,4-.52,4.41-4.01,1.21-9.99,5.63-18.5,13.52-25.99,2.54-2.41,5.05-4.93,7.47-7.36,1.26-1.27,2.53-2.54,3.8-3.79,1.15-1.14,2.25-1.76,3.1-1.76.31,0,.8.07,1.41.71.69.72,1.64,1.7-1.2,4.53-4.63,4.62-8.46,8.42-12.06,11.94-7.81,7.66-11.75,17.16-11.72,28.21.04,13.68.03,27.59.02,41.04v10.51c0,.26,0,.52,0,.79.01.58.02,1.12-.04,1.59-.2,1.55-.88,2.22-2.38,2.33-.05,0-.11,0-.16,0ZM160.31,47.76c3.23,0,5.85.02,8.23.06h.2c2.58,0,4.28-.97,5.52-3.16,2.67-4.71,5.45-9.47,8.14-14.08,2.32-3.98,4.65-7.96,6.94-11.97.59-1.01.71-2.11.82-3.08.04-.33.07-.66.14-.98.11-.55-.02-1.12-.35-1.57s-.83-.74-1.39-.81c-.34-.04-.68-.11-1.03-.18-.65-.13-1.38-.28-2.14-.28-.46,0-.88.05-1.29.16-3.12.85-6.13,1.27-8.95,1.27-4.41,0-8.44-1-12.31-3.07-4.11-2.2-8.28-3.31-12.38-3.31s-8.26,1.11-12.38,3.31c-3.87,2.07-7.9,3.07-12.34,3.07-2.81,0-5.81-.42-8.92-1.26-.42-.11-.86-.17-1.35-.17-.73,0-1.44.13-2.07.25-.35.06-.69.13-1.03.16-.56.05-1.07.34-1.41.79-.34.45-.47,1.02-.37,1.57.06.32.09.65.13.99.1.97.21,2.06.79,3.09,2.52,4.41,5.12,8.85,7.63,13.15,2.51,4.3,5.11,8.75,7.62,13.14,1.16,2.02,2.74,2.92,5.12,2.92h.13c2.72-.04,5.44-.05,8.16-.05,1.71,0,8.41.01,10.05.02.06,0,.13,0,.2,0,1.65,0,8.23-.02,9.88-.02Z"/>
  <path class="cls-1" d="M218.15,298.02c-1.21,0-2.08-.94-2.32-2.52-.29-1.87-.6-3.74-.91-5.61-.86-5.23-1.76-10.63-2.12-15.94-.56-8.32,2.14-16.23,8.02-23.52,4.45-5.51,8.9-11.03,13.34-16.54,10.02-12.44,20.39-25.3,30.65-37.89,3.46-4.25,5.06-8.75,5.03-14.15-.08-17.74-.07-35.78-.06-53.23,0-7.45,0-14.9,0-22.34,0-2.01,0-6.19-4.25-6.19-.8,0-1.76.15-3.12.49-6.5,1.63-10.71,7.24-10.73,14.29l-.02,8.97c-.03,15.5-.06,31.53.06,47.3.04,5.43-1.65,9.78-5.32,13.67-7.03,7.47-14.07,15.17-20.87,22.61-3.03,3.32-6.07,6.63-9.11,9.94-.24.26-.48.52-.71.79-.48.53-.93,1.03-1.4,1.5-.71.69-1.44,1.05-2.11,1.05-.5,0-.98-.21-1.44-.61-.5-.44-.79-.98-.82-1.55-.04-.69.27-1.42.89-2.11,3.8-4.21,7.71-8.46,11.5-12.57l9.26-10.06c3.97-4.32,7.94-8.64,11.92-12.94,1.77-1.92,4.02-4.94,3.17-9.14-.75-3.68-2.99-6.22-6.47-7.36-1.04-.34-2.08-.51-3.08-.51-2.52,0-4.86,1.05-6.96,3.11-3.49,3.44-6.96,6.88-10.43,10.33-2.35,2.33-4.7,4.67-7.05,6.99l-.38.38c-.46.47-.9.92-1.36,1.27-.59.45-1.2.69-1.75.69s-1.09-.26-1.53-.79c-.96-1.13-.95-2.09.04-3.3.34-.42.75-.82,1.2-1.24l.27-.25c1.84-1.82,3.66-3.69,5.41-5.5,4.17-4.3,8.49-8.75,13.16-12.51,4.55-3.67,4.34-7.24,3.64-11.18-4.32-24.73-14.47-47.23-30.17-66.86-.88-1.1-1.31-2.16-1.2-2.98.07-.52.35-.96.87-1.35.47-.36.92-.54,1.33-.54.78,0,1.73.66,2.68,1.85,17.14,21.39,27.81,45.85,31.69,72.69.62,4.33,1.88,4.58,7.92,5.81.13.03.27.04.4.04.73,0,1.42-.4,1.77-1.07.15-.29.24-.62.24-.95v-10.73c0-10.41-.02-21.18.03-31.75,0-2.52.19-4.49.59-6.23,1.9-8.24,9.49-14.33,18.05-14.47h.16c5.01,0,8.81,3.67,8.82,8.53.07,26.34.06,53.64-.02,81.14-.02,4.48-1.75,8.78-5.28,13.15-4.56,5.63-9.1,11.29-13.63,16.95-9.28,11.59-18.88,23.57-28.59,35.12-8.31,9.88-11.1,20.47-8.53,32.37.62,2.89,1.07,5.89,1.51,8.8.16,1.07.32,2.14.49,3.21.11.72.31,3.08-1.95,3.44-.13.02-.26.03-.4.03Z"/>
  <path class="cls-2" d="M150.27,201.75c-4.95,0-9.12-3.83-9.71-8.9-.37-3.25-1.99-4.5-4.31-5.39-3.63-1.39-6.94-3.02-9.84-4.85-4.57-2.87-5.88-8.79-2.97-13.47,1.86-3,4.98-4.79,8.34-4.79,1.74,0,3.47.5,5,1.46,3.74,2.33,7.62,3.46,11.87,3.46.5,0,1.01-.02,1.52-.05,3.61-.22,6.23-1.88,7.77-4.94,1.11-2.2,1.33-4.21.64-5.97-.68-1.77-2.19-3.12-4.49-4-1.75-.68-3.51-1.32-5.28-1.97-3.38-1.23-6.87-2.51-10.16-3.98-5.39-2.41-9.49-6.63-12.21-12.54-.49-1.07-1.04-2.99.81-3.84.36-.17.72-.25,1.06-.25,1.24,0,1.95,1.14,2.26,1.82,2.65,5.78,7.31,9.84,14.23,12.42,2.37.88,4.79,1.71,7.13,2.52,1.04.36,2.08.71,3.12,1.08,6.14,2.16,9.2,6.4,8.61,11.94-.69,6.39-5.5,11.58-11.42,12.33-1.03.13-2.07.17-3.18.22-.45.02-.9.04-1.35.06-.05,0-.19,0-.21,0h-.47c-4.14,0-7.86-1.14-11.38-3.51-1.42-.96-2.71-1.43-3.94-1.43s-2.93.46-4.19,2.65c-1.03,1.8-.88,3.29-.56,4.22.5,1.5,1.75,2.71,3.62,3.51l1.32.57c3.22,1.38,6.54,2.81,10,3.81,3.12.9,3.24,1.04,3.27,3.88,0,.39,0,.78,0,1.17-.01.9-.02,1.82.05,2.78.24,3.11,2.25,5.12,5.12,5.12.11,0,.22,0,.34,0,1.58-.08,2.95-.73,3.84-1.83.84-1.03,1.18-2.38.96-3.79-.79-4.99.83-7.59,6.42-10.3,8.34-4.05,12.74-12.1,12.07-22.09-.64-9.39-6-15.87-15.92-19.26l-1.73-.59c-3.21-1.08-6.52-2.2-9.6-3.59-6.5-2.93-9.21-8.79-6.75-14.56,1.61-3.77,5.65-6.21,10.29-6.21,1.65,0,3.29.3,4.88.9,1.75.66,3.45,1.93,4.95,3.05.91.68,2.31,1.58,3.97,1.58.93,0,2.32-.3,3.62-1.75,1.38-1.52,1.54-3.02,1.43-4.01-.16-1.46-1-2.8-2.38-3.79-2.39-1.71-5.11-3.64-8.15-4.83-2.44-.95-3.2-2.06-3.03-4.37.08-1.12.05-2.22.03-3.28,0-.33-.02-.67-.02-1-.05-3.04-1.94-5.13-4.84-5.31-.14,0-.27-.01-.4-.01-2.88,0-4.87,2.01-5.09,5.12-.11,1.51-.09,3-.07,4.45v1.26c.03,1.5-.51,2.25-1.89,2.69-5.02,1.61-8.91,4.65-11.9,9.31-.54.84-1.27,1.3-2.07,1.3-.43,0-.87-.14-1.27-.39-1.66-1.05-1.09-2.61-.61-3.45,2.33-4.06,5.47-7.11,9.33-9.07,2.58-1.31,3.69-3.1,3.71-5.98.03-4.28,1.99-7.36,5.82-9.15,1.44-.67,2.87-1.01,4.25-1.01,2.07,0,4.11.77,6.06,2.27,2.57,1.99,3.81,4.6,3.7,7.76-.1,2.79.94,4.55,3.47,5.87,2.31,1.2,4.62,2.85,6.69,4.76,2.1,1.94,3.31,4.47,3.41,7.14.1,2.59-.85,5.1-2.68,7.06-1.9,2.04-4.43,3.17-7.12,3.17-2.48,0-4.92-.91-7.07-2.62-1.74-1.4-4.07-2.39-6.38-2.74-.35-.05-.71-.08-1.07-.08-1.69,0-3.16.54-4.15,1.53-.83.83-1.26,1.92-1.26,3.16,0,2.73,2.3,5.22,3,5.92,1.14,1.13,2.67,1.63,4.01,2.07.31.1.62.2.92.31,1.35.49,2.7.94,4.06,1.39,1.24.41,2.47.82,3.7,1.26,11.88,4.23,18.25,12.15,18.92,23.52.68,11.55-4.29,20.58-14.78,26.85-2.23,1.34-3.71,2.9-3.69,6.19.03,5.47-4.08,9.79-9.56,10.05-.15,0-.3.01-.45.01Z"/>
  <path class="cls-1" d="M81.9,298c-.13,0-.25-.01-.38-.03-.71-.11-1.25-.44-1.59-.97-.39-.61-.52-1.48-.37-2.46.29-1.86.59-3.73.89-5.59.66-4.05,1.34-8.24,1.85-12.39,1.04-8.51-1.35-16.43-7.11-23.54-5.39-6.66-10.76-13.33-16.13-19.99-9.05-11.23-18.4-22.84-27.67-34.21-4.1-5.03-6-10.34-5.97-16.73.09-18.62.07-37.56.06-55.86,0-6.86-.01-13.72-.01-20.58,0-4.68,1.57-10.26,9.02-10.26.88,0,1.82.08,2.8.24,8.96,1.48,15.62,9.15,15.83,18.22.08,3.18.08,6.39,0,9.56-.04,1.72-.95,2.83-2.32,2.83-1.44-.03-2.36-1.1-2.41-2.73-.06-1.66-.05-3.38-.04-5.03,0-1.44.02-2.88-.01-4.32-.16-6.81-4.75-12.33-11.41-13.75-1.08-.23-1.85-.33-2.53-.33-4.15,0-4.15,3.95-4.15,5.63v39.24c0,.07,0,.13,0,.2,0,3.48,0,6.97.02,10.45.02,8.7.04,17.69-.07,26.52-.06,5.07,1.53,9.52,4.86,13.62,5.68,6.97,11.41,14.1,16.96,21,8.41,10.46,17.11,21.28,25.82,31.79,8.28,10,11.09,21.08,8.59,33.86-.5,2.56-.91,5.17-1.31,7.68-.28,1.78-.56,3.56-.87,5.33-.29,1.62-1.16,2.58-2.34,2.58Z"/>
</svg>