<?xml version="1.0" encoding="UTF-8"?>
<svg id="_圖層_1" data-name=" 圖層 1" xmlns="http://www.w3.org/2000/svg" version="1.1" viewBox="0 0 300 300">
  <defs>
    <style>
      .cls-1 {
        fill: #fff;
      }

      .cls-1, .cls-2 {
        stroke-width: 0px;
      }

      .cls-2 {
        fill: #d91023;
      }
    </style>
  </defs>
  <path class="cls-1" d="M297.61,140.95c-3.36-8.96-6.86-17.77-11.09-28.25-.41-1.04-1.17-1.62-2.13-1.62-.34,0-.68.07-1.02.21-1.16.48-1.65,1.78-1.2,3.18.3.96.69,1.9,1.1,2.9.22.53.44,1.07.65,1.61,3.03,7.68,6.06,15.37,9.16,23.24.2.49.19,1.04-.03,1.53-.21.48-.6.87-1.1,1.06l-24.24,9.54c-.24.1-.49.14-.73.14-.8,0-1.55-.48-1.86-1.27l-30.16-76.45c-.41-1.02.1-2.18,1.12-2.59,4.84-1.92,24.15-9.56,24.15-9.56.24-.1.49-.14.74-.14.78,0,1.51.45,1.84,1.21l.43.99c.37.85.71,1.63,1.02,2.42l3.36,8.53c2.2,5.59,4.41,11.18,6.63,16.76.35.88,1.14,2.36,2.45,2.36.27,0,.55-.05.85-.16.66-.25,1.11-.63,1.33-1.14.31-.7.24-1.7-.19-2.81-3.52-8.98-7.29-18.59-11.06-27.99-1.28-3.16-3.57-4.9-6.46-4.9-1.06,0-2.19.23-3.37.68-3.76,1.47-7.51,2.96-11.26,4.46-3.76,1.5-7.52,3-11.29,4.46-3.59,1.4-5.19,3.73-5.21,7.55,0,1.49-1.16,3.25-2.54,3.84-1.59.68-3.22,1.27-4.8,1.84-1.4.51-2.85,1.04-4.22,1.61-3.84,1.6-7.86,2.41-11.94,2.41-2.29,0-4.65-.25-7.03-.75-2.72-.58-5.69-1.05-9.35-1.47-.21-.03-.42-.04-.61-.04-1.49,0-2.32.67-2.46,1.99-.07.56-.26,2.27,2.59,2.79.88.16,1.77.28,2.66.41,1.43.21,2.9.42,4.36.75,3.21.72,6.41,1.09,9.49,1.09,5.6,0,11.12-1.21,16.4-3.6,1.83-.83,3.68-1.45,5.64-2.11.86-.29,1.75-.59,2.64-.91.23-.08.46-.12.68-.12.8,0,1.55.48,1.86,1.27l24.98,63.34c.35.88.02,1.9-.78,2.41-6.43,4.12-12.64,8.11-18.85,12.1-.33.21-.71.32-1.08.32-.42,0-.84-.13-1.19-.39l-8.13-6c-8.85-6.51-17.99-13.24-26.9-19.89-1.39-1.03-2.57-1.46-3.97-1.46-.33,0-.68.02-1.05.07-2.71.37-5.41.56-8.02.56-14.11,0-26.86-5.48-37.87-16.3-2.34-2.3-4.5-3.42-6.59-3.42s-4.19,1.02-6.63,3.13c-5.99,5.17-12.68,10.3-21.05,12.82-2.48.74-4.85,1.11-7.06,1.11-4.32,0-8.24-1.42-11.64-4.24-.65-.53-2.61-2.15-2.5-4.44.08-1.54,1.02-2.88,2.87-4.12,13.31-8.83,26.26-19.65,40.76-34.04,3.01-2.98,6.58-4.49,10.61-4.49.85,0,1.73.07,2.62.2,1.69.27,3.39.54,5.08.8,3.54.57,7.19,1.15,10.79,1.65.3.04.6.06.87.06,1.65,0,2.56-.69,2.7-2.06.2-1.95-1.8-2.56-3.01-2.76-1.56-.25-3.12-.49-4.67-.74-3.17-.5-6.33-1-9.49-1.54-1.53-.26-3.03-.39-4.46-.39-5.96,0-10.99,2.21-15.36,6.74-.18.2-.37.4-.55.6-.81.86-1.65,1.75-2.67,2.49-.74.52-1.97,1.09-3.21,1.09-.38,0-.75-.06-1.09-.17-10.44-3.39-21.56-3.55-32.3-3.7-1.22-.02-2.44-.04-3.66-.06-6.69-.13-12.75-1.57-18.56-4.43-.97-.49-1.69-1.46-2.02-2.17-.27-.53-.41-1.11-.41-1.65v-.15l-31.91,81.32c.33-.03.65-.05.98-.05.31,0,.62.02.81.05.64.06,1.21.25,1.67.54,5.28,3.17,10.55,6.53,15.65,9.78l1.51.97c.82.52,1.56,1.08,2.28,1.63.32.25.64.48.95.71.76.56,1.03,1.57.65,2.43-2.47,5.56-2.73,10.24-.76,13.89,2.19,4.08,7.25,6.88,14.62,8.11.82.13,1.48.77,1.63,1.59,1.72,8.94,5.44,12.09,15.93,13.46.85.11,1.53.75,1.7,1.59,1.73,8.61,6.37,12.79,14.62,13.16,1.74.09,3.2,2.03,3.48,3.36,1.35,6.07,4.78,9.72,10.47,11.15,1.29.32,2.55.48,3.74.48,4,0,7.62-1.84,10.74-5.47.67-.78,1.35-1.56,2.04-2.35.46-.52.92-1.05,1.39-1.59.39-.46.95-.69,1.51-.69.43,0,.86.14,1.22.42l1.01.78c4.71,3.65,9.15,7.1,14.61,7.1.98,0,1.99-.11,3-.32,7.05-1.52,11.25-5.99,12.84-13.66.12-.55.45-1.02.94-1.31.31-.18.66-.28,1.02-.28.19,0,.39.03.57.08,1.96.59,3.84.89,5.61.89,3.09,0,5.9-.88,8.59-2.67,4.1-2.72,6.35-6.79,6.9-12.44.1-1,.92-1.78,1.93-1.81,12.26-.39,16.03-3.27,19.19-14.65.25-.87,1.04-1.46,1.93-1.46.05,0,.1,0,.15.01.88.06,1.74.09,2.56.09,6.03,0,10.48-1.69,13.23-5.02,3.13-3.79,4-9.8,2.54-17.37-.16-.8.19-1.62.88-2.06,1.25-.81,2.5-1.61,3.75-2.42,3.83-2.47,7.79-5.03,11.77-7.46.51-.31,1.12-.46,1.82-.46,1.04,0,2.24.35,3.03.89,1.52,1.03,2.97,1.55,4.32,1.55.66,0,1.28-.11,1.91-.35,8.14-3.08,16.87-6.43,25.48-10.1,2.87-1.22,4.33-4.82,3.19-7.87ZM80.55,188.55c-1.13,1.22-2.72,1.75-3.77,2.11-.25.08-.46.15-.61.22-.27.13-.57.2-.87.2h-.05c-4.35-.11-7.17-1.62-8.89-4.77-1.84-3.41-1.64-6.93.55-9.66,4.34-5.39,8.28-10,12.05-14.09,1.58-1.72,3.78-2.67,6.18-2.67,2.13,0,4.22.75,5.88,2.11,3.88,3.15,4.66,8.51,1.78,12.2-3.49,4.48-7.38,9.04-12.25,14.35ZM99.21,202.74c-1.95,2.19-4.48,3.4-7.13,3.4-2.1,0-4.11-.75-5.83-2.17-4.08-3.39-4.49-8.95-.96-13.21,3.48-4.23,7.14-8.51,10.87-12.73,1.78-2,4.06-3.06,6.58-3.06,1.17,0,2.39.22,3.62.67,3.26,1.18,5.63,4.4,6.17,8.41.05.39-.01.78-.18,1.13-.21.46-.4.93-.6,1.4-.49,1.22-1,2.47-1.89,3.58-3.08,3.85-6.46,7.84-10.65,12.58ZM117.09,217.56c-2.01,2.28-4.64,3.54-7.39,3.54-2.12,0-4.12-.74-5.79-2.15-4.08-3.44-4.44-8.88-.87-13.22,3.49-4.25,7.08-8.45,10.67-12.51,1.9-2.14,4.27-3.26,6.87-3.26,1.21,0,2.42.25,3.61.74,3.3,1.36,5.5,4.44,6.04,8.44.06.4-.01.8-.19,1.16-.24.48-.45.97-.66,1.46-.53,1.25-1.09,2.54-2.01,3.69-3.6,4.5-7.39,8.84-10.28,12.11ZM133.8,233.53c-1.11,1.2-2.67,1.78-3.69,2.17-.26.09-.48.17-.65.25-.28.15-.59.22-.9.22h-.05c-4.33-.11-7.15-1.58-8.89-4.62-1.96-3.41-1.83-6.95.36-9.7,4.29-5.39,8.3-10.08,12.25-14.33,1.53-1.65,3.67-2.56,6.03-2.56,2.21,0,4.37.79,6.06,2.22,3.71,3.13,4.41,8.62,1.55,12.25-3.51,4.46-7.46,9.07-12.07,14.1ZM235.84,182.57c-2.11,2.82-5.09,4.37-8.37,4.37-2.51,0-5.05-.91-7.37-2.63-3.17-2.36-6.35-4.8-9.43-7.16-2.79-2.14-5.67-4.35-8.53-6.48-1.26-.95-1.81-1.16-1.99-1.21-1.13.34-2.33,1.18-2.84,2-.41.66,0,1.48,1.22,2.42,3.18,2.49,6.38,4.95,9.59,7.41l3.15,2.43c4.94,3.8,6.05,9.62,2.77,14.49-1.98,2.93-5.29,4.68-8.85,4.68-2.18,0-4.29-.66-6.12-1.91-3.18-2.18-6.26-4.56-9.23-6.87-1.24-.95-2.47-1.91-3.71-2.85-.52-.39-1.03-.79-1.54-1.19-.71-.56-1.41-1.11-2.15-1.64-.82-.59-1.59-.9-2.24-.9-.24,0-.95,0-1.66.98-1.17,1.6.08,2.96.93,3.63,2.34,1.85,4.75,3.7,7.08,5.49,1.26.97,2.53,1.94,3.79,2.92,4.95,3.82,6.08,10.04,2.67,14.78-2.02,2.83-5.17,4.46-8.64,4.46-2.23,0-4.43-.7-6.35-2.01-2.81-1.92-5.54-4.03-8.19-6.06-1.04-.81-2.09-1.61-3.12-2.4-.53-.39-1.04-.79-1.56-1.2-.55-.44-1.11-.88-1.67-1.29-.81-.58-1.59-.89-2.27-.89s-1.21.3-1.67.92c-.33.44-1.34,1.79.9,3.64,1.58,1.29,3.25,2.57,4.85,3.8.6.46,1.2.91,1.8,1.38,4.31,3.32,5.49,8.09,3.16,12.75-1.79,3.61-5.44,5.94-9.3,5.94-1.26,0-2.48-.25-3.64-.74-2.29-.96-4.3-2.3-6.44-3.72-.91-.6-1.84-1.22-2.81-1.82-.5-.31-.84-.82-.93-1.41-.09-.58.09-1.18.48-1.62,5.01-5.64,6.1-10.94,3.44-16.68-2.53-5.49-6.9-8.16-13.38-8.16-.24,0-.49,0-.74.01h-.06c-.97,0-1.8-.69-1.97-1.65-1.61-8.95-6.74-13.38-15.7-13.54-.88-.02-1.65-.61-1.89-1.46-2.81-10-6.11-12.79-16.06-13.58-.86-.06-1.58-.68-1.78-1.52-.1-.39-.18-.78-.27-1.18-.18-.8-.34-1.55-.57-2.29-1.81-5.89-7.2-9.85-13.42-9.85-3.84,0-7.44,1.56-10.12,4.38-1.62,1.72-3.19,3.57-4.7,5.36-.77.91-1.54,1.81-2.31,2.7-.39.45-.94.69-1.51.69-.22,0-.44-.04-.66-.11-.12-.04-.22-.07-.31-.1-.31-.09-.7-.21-1.08-.46-6.24-4.01-12.48-8.03-18.89-12.17l-3.71-2.39s-.15-.1-.22-.15c-.71-.55-.98-1.5-.65-2.33l25.44-64.5c.19-.5.62-.88,1.11-1.09.24-.11.51-.16.78-.16s.54.06.79.16c1.37.48,2.69,1.02,3.97,1.54,2.82,1.14,5.47,2.22,8.12,2.57,4.55.6,9.28.76,13.85.92,2.58.09,5.26.18,7.89.35,4.15.27,8.35.65,12.42,1,1.85.17,3.7.33,5.56.49.67.05,1.28.45,1.6,1.05.23.45.47.9.74,1.44.24.47.29,1.02.12,1.53-.16.5-.52.92-1,1.16-.26.14-.52.26-.79.38-.46.21-.89.4-1.18.62-2.7,2.09-5.39,4.21-8.07,6.32-5.36,4.22-10.9,8.58-16.53,12.65-3.57,2.58-5.55,5.75-5.57,8.92-.01,3.09,1.77,6.05,5.17,8.55,4.2,3.11,8.68,4.62,13.68,4.62,2.91,0,6.03-.53,9.29-1.58,7.15-2.3,14.01-6.51,21.59-13.22.93-.83,2.2-1.79,3.78-1.79s2.9,1,3.92,1.98c11.9,11.44,25.72,17.25,41.07,17.25,1.99,0,4.04-.1,6.1-.29.19-.02.39-.03.59-.03,1.59,0,3.32.54,4.49,1.41,10.1,7.32,20.84,15.21,32.81,24.1,2.77,2.06,4.54,4.88,4.99,7.96.4,2.73-.28,5.46-1.94,7.68Z"/>
  <path class="cls-2" d="M64.49,69.2c-3.81-1.48-7.62-2.99-11.43-4.49-3.26-1.29-6.52-2.58-9.79-3.86-1.8-.7-3.39-1.06-4.72-1.06-2.01,0-4.6.7-6.76,6.17l-6.34,16.1c-6.13,15.58-12.27,31.17-18.43,46.74-1.11,2.8-2.31,5.6-3.46,8.31-.52,1.22-1.05,2.44-1.56,3.66v3.79c1.2,2.23,2.36,3.98,4.53,4.82,2.62,1.02,5.23,2.06,7.84,3.11,5.16,2.07,10.5,4.21,15.82,6.04.37.12.82.19,1.39.19.81,0,1.71-.13,2.67-.26.91-.13,1.86-.26,2.8-.3.22,0,.44-.03.68-.04.09-.01.19-.02.28-.02l31.91-81.32c-.04-3.79-1.72-6.13-5.43-7.58ZM65.02,76.72c-10.05,25.48-20.03,50.79-30.17,76.51-.19.5-.58.89-1.06,1.1-.26.11-.53.17-.8.17-.25,0-.5-.05-.74-.14-7.14-2.82-14.01-5.53-21.04-8.31l-3.19-1.26c-1.03-.4-1.54-1.57-1.13-2.59l30.16-76.47c.31-.79,1.06-1.27,1.86-1.27.24,0,.49.04.73.14,7.09,2.79,14.1,5.54,21.36,8.39l2.89,1.14c.5.19.89.58,1.1,1.06.22.49.23,1.04.03,1.53Z"/>
</svg>