<?xml version="1.0" encoding="UTF-8"?>
<svg id="_圖層_1" data-name=" 圖層 1" xmlns="http://www.w3.org/2000/svg" version="1.1" viewBox="0 0 300 300">
  <defs>
    <style>
      .cls-1 {
        fill: #fff;
      }

      .cls-1, .cls-2 {
        stroke-width: 0px;
      }

      .cls-2 {
        fill: #d91023;
      }
    </style>
  </defs>
  <path class="cls-1" d="M13.31,298.01c-8.1-3.18-11.55-7.67-11.18-14.52.14-2.56.75-4.93,1.72-6.67,7.54-13.49,15.37-27.12,23.28-40.54,1.63-2.76,3.83-5.35,5.95-7.85l.78-.92c.88-1.05,1.98-1.63,3.08-1.63.84,0,1.67.33,2.42.94.85.71,1.37,1.63,1.46,2.6.09.94-.23,1.87-.92,2.69-7.4,8.85-12.92,18.95-18.26,28.71-2.42,4.43-4.93,9.01-7.56,13.38-1.08,1.79-2.44,4.03-3.5,6.33-1.16,2.51-1.14,4.94.07,6.83,1.2,1.88,3.35,2.92,6.07,2.92,0,0,13.81,0,18.87,0,5.07,0,10.13,0,15.2,0,10.73,0,19,.02,26.83.07h.11c4.63,0,7.74-1.73,9.76-5.45,1-1.83,2.12-3.56,3.32-5.39.95-1.45,1.93-2.95,2.82-4.5,1.18-2.02,2.59-2.84,4.88-2.84.18,0,.36,0,.54.02,4.49.24,9.05.41,13.45.58,8.05.3,16.36.62,24.49,1.34,3.09.28,6.22.42,9.31.42,14.9,0,29.9-3.15,45.88-9.62,21.64-8.77,43.7-17.56,65.03-26.07,8.72-3.47,17.43-6.95,26.14-10.43,4.18-1.67,6.46-4.43,6.78-8.21.2-2.43-.56-4.72-2.15-6.44-1.74-1.89-4.27-2.93-7.12-2.93-.74,0-1.49.07-2.25.21-3.95.74-7.89,1.71-11.7,2.64-1.07.26-2.15.53-3.22.79-13.99,3.38-29.84,7.21-45.18,10.98-1.14.28-2.31.84-3.68,1.78-1.28.89-2.51,1.86-3.7,2.79-2.31,1.82-4.5,3.54-6.92,4.62-15.48,6.94-31.23,12.41-46.82,16.27l-.18.04c-.57.14-1.12.27-1.63.35-.3.05-.6.07-.88.07-1.98,0-3.42-1.07-3.85-2.85-.49-2.04.71-3.93,2.91-4.59,2.36-.71,4.79-1.38,7.14-2.04,4.23-1.17,8.59-2.39,12.83-3.85,7.3-2.53,14.61-5.37,21.68-8.12,1.64-.64,3.28-1.28,4.92-1.91,1.73-.67,3.51-1.61,5.29-2.79,3.87-2.55,5.06-5.66,3.64-9.51-1.31-3.5-4.2-5.5-7.93-5.5-.35,0-.72.02-1.09.06-3.74.37-7.53.8-11.19,1.22-2.29.26-4.57.52-6.86.76-3.36.36-6.76.79-10.05,1.21-7.73.97-15.72,1.97-23.55,2.2-.72.02-1.45.03-2.17.03-7.12,0-14.44-.98-21.53-1.93l-5.07-.67c-9.44-1.26-19.19-2.56-28.95-2.56-2.18,0-4.33.07-6.39.2-.17.01-.35.02-.52.02-2.77,0-4.42-1.33-4.52-3.66-.16-3.45,3.66-3.98,4.84-4.06,2.6-.18,5.3-.27,8.03-.27,9.63,0,20.15,1.1,33.11,3.45,6.11,1.11,12.38,1.65,19.17,1.65,6.37,0,13.25-.49,21.03-1.5,11.43-1.47,22.73-2.63,34.26-3.79.57-.06,1.14-.09,1.71-.09,6.82,0,12.74,4.3,15.08,10.96.26.73.51,1.44.82,2.37.28.83,1.05,1.35,1.89,1.35.15,0,.31-.02.47-.05,9.34-2.24,18.6-4.46,27.87-6.67,2.81-.67,5.62-1.35,8.43-2.03,6.73-1.63,13.69-3.31,20.56-4.86,1.35-.31,2.74-.46,4.12-.46,8.37,0,15.11,5.29,16.78,13.17.06.31.19.58.33.79v5.41c-1.94,7.3-6.86,12-15.05,14.36-.84.24-1.62.56-2.36.88-.27.12-.55.23-.83.34l-84.9,34.05c-17.25,6.92-31.71,10.14-45.49,10.14-1.62,0-3.25-.04-4.85-.13-5.31-.29-10.71-.52-15.93-.73-7.52-.31-15.3-.63-22.92-1.17-.41-.03-.8-.04-1.18-.04-3.71,0-6.12,1.49-8.04,4.99-3.57,6.45-7.12,11.88-14.44,12.89H13.31Z"/>
  <path class="cls-1" d="M149.96,189.92c-5.03,0-10.09-1.69-14.63-4.89-4.83-3.4-9.39-4.92-14.8-4.92-1.03,0-2.12.06-3.23.17-.93.09-1.86.14-2.75.14-8.61,0-15.61-4.24-20.79-12.61-1.33-2.14-2.56-4.55-3.99-7.81-1.06-2.42-2.73-3.97-5.25-4.87-5.77-2.08-9.85-4.66-12.84-8.11-5.21-6-7.3-13.06-6.2-20.98.78-5.59-.5-10.17-4.14-14.85-6.89-8.85-7.23-20.09-.89-29.31,4.3-6.24,5.83-11.85,5.11-18.74-1.08-10.23,3.46-18.54,12.78-23.4,7.83-4.07,12.32-8.55,15.5-15.47,4.94-10.74,15-13,22.57-13h2.15c1.37-.01,2.81.03,4.13.31.77.17,1.54.25,2.28.25,3.21,0,5.66-1.56,7.84-3.25,5.77-4.46,11.35-6.63,17.04-6.63,5.1,0,10.37,1.84,15.67,5.47,4.39,3,8.4,4.34,13.01,4.34.92,0,1.88-.06,2.86-.16,1.18-.13,2.34-.19,3.47-.19,9.88,0,17.6,5.1,22.34,14.76,3.14,6.41,7.04,10.26,13.03,12.86,9.62,4.2,14.65,12.31,14.18,22.83-.4,8.71,1.3,15.12,5.69,21.44,5.41,7.78,5.36,17.14-.14,25.67-3.45,5.36-6.53,11.56-5.67,20.56.93,9.72-3.8,17.99-13,22.7-7.44,3.8-11.96,8.3-15.12,15.03-5.14,10.96-15.05,13.26-22.46,13.26-.63,0-1.27-.02-1.92-.05-.54-.02-1.06-.07-1.58-.11-.31-.03-.62-.05-.92-.07-1.05-.24-2.09-.36-3.1-.36-4.36,0-7.79,2.19-10.57,4.32-4.8,3.69-10.21,5.64-15.65,5.64ZM125.82,171.87c1.82,0,3.56.39,4.78,1.06,1.98,1.09,3.84,2.36,5.81,3.71,1.18.81,2.41,1.65,3.65,2.43,3.13,1.98,6.47,2.99,9.9,2.99,3.73,0,7.43-1.24,10.71-3.58.93-.66,1.82-1.37,2.68-2.05,1.35-1.08,2.62-2.09,3.99-2.9,1.33-.78,2.99-1.27,4.42-1.29h.56c2.37,0,4.83.2,7.21.41.95.08,1.9.16,2.86.23.49.04.98.05,1.46.05,7.28,0,13.47-3.99,16.55-10.67.47-1.02.88-2.06,1.28-3.06.64-1.61,1.24-3.14,2.04-4.52.85-1.48,2.1-2.81,3.36-3.58,1.69-1.02,3.47-1.88,5.36-2.79,1.73-.83,3.52-1.7,5.24-2.7,6.61-3.86,9.75-10.04,9.07-17.88-.16-1.93-.44-3.98-.87-6.27-.54-2.92-.06-5.15,1.54-7.23,1.84-2.38,3.63-5.07,5.8-8.72,3.96-6.64,3.77-13.56-.57-20.02-.69-1.02-1.45-1.98-2.19-2.9-.97-1.21-1.88-2.35-2.58-3.57-.95-1.68-1.52-3.49-1.57-4.97-.07-2.12.1-4.24.27-6.48.12-1.57.24-3.18.28-4.8.21-8.64-3.78-14.92-10.93-17.22-7.61-2.45-12.39-7.21-15.05-14.98-.09-.26-.21-.46-.28-.57-3.71-7.27-8.98-10.97-15.63-10.97-1.29,0-2.66.14-4.05.42-1.72.35-3.38.52-4.94.52-4.97,0-9.26-1.71-13.5-5.39-.24-.21-.48-.35-.62-.43-4.62-3.05-8.46-4.44-12.15-4.44-4.12,0-8.14,1.73-12.65,5.44-3.96,3.26-7.1,4.65-10.53,4.65-1.03,0-2.1-.13-3.19-.4-.55-.13-1.14-.2-1.83-.2-.44,0-.89.03-1.33.05-.37.02-.73.05-1.09.05-.05,0-.1,0-.15,0-.81-.04-1.59-.07-2.32-.07-9.35,0-14.31,3.56-18.3,13.14-.22.51-.41,1.05-.6,1.58-.39,1.07-.76,2.08-1.29,2.83-1.07,1.53-2.37,3.21-3.88,4.15-1.79,1.11-3.7,2.02-5.72,2.99-1.42.68-2.89,1.38-4.31,2.15-6.64,3.63-10.23,10.57-9.38,18.11.23,2.07.47,4.16.87,6.24.55,2.88.08,5.11-1.54,7.21-1.73,2.25-3.25,4.66-4.72,6.99l-.9,1.43c-4.24,6.67-4.03,14.19.57,20.61.6.84,1.25,1.65,1.88,2.42,1.02,1.26,1.98,2.45,2.7,3.73.96,1.69,1.53,3.51,1.57,4.98.06,2.11-.1,4.21-.26,6.44-.12,1.68-.25,3.42-.28,5.15-.13,7.8,3.63,13.73,10.87,17.14,1.01.47,2.03.86,3.03,1.24,1.45.55,2.82,1.07,4.01,1.8,1.67,1.02,3.14,2.41,4.01,3.81,1.05,1.69,1.92,3.49,2.83,5.39.74,1.53,1.5,3.12,2.37,4.65,3.49,6.14,8.93,9.38,15.74,9.38.65,0,1.32-.03,2-.09,1.1-.09,2.2-.25,3.25-.4,1.62-.23,3.15-.45,4.65-.45h.06Z"/>
  <path class="cls-1" d="M57.76,217.4c-2.13,0-3.75-1.61-3.77-3.74-.02-2.14,1.56-3.79,3.68-3.83h0c1.15,0,2.13.4,2.85,1.14.7.71,1.08,1.67,1.06,2.68-.03,2.1-1.72,3.75-3.83,3.75Z"/>
  <path class="cls-2" d="M127.72,150.94c-5.93-.05-11.14-2.98-13.94-7.83-2.78-4.81-2.73-10.7.12-15.74,5.73-10.11,11.67-20.35,17.41-30.24,2.62-4.51,5.24-9.03,7.84-13.54,2.06-3.56,4.11-7.13,6.16-10.7,4.57-7.95,9.3-16.17,14.04-24.19,3.01-5.09,7.36-7.67,12.91-7.67.69,0,1.41.04,2.14.12,6.6.74,11.03,4.42,13.16,10.93,1.42,4.3.8,8.5-1.94,13.22-8.95,15.47-17.89,30.94-26.83,46.41-5.83,10.09-11.66,20.17-17.49,30.26-.52.91-1.18,2.04-1.9,2.95-2.92,3.69-6.93,5.77-11.6,6.02-.03,0-.05,0-.08,0ZM172.5,48.7c-1.95,0-4.74.79-6.9,4.55-14.93,25.8-29.84,51.6-44.73,77.42-2.56,4.43-1.63,9.01,2.3,11.39,1.28.78,2.63,1.17,4,1.17,2.87,0,5.52-1.76,7.29-4.82,13-22.47,27.17-47,44.57-77.18.58-1.02.95-2.08,1.21-2.85.07-.22.14-.41.2-.56.13-.32.17-.66.12-.99-.17-3.95-2.45-6.95-5.99-7.86-.71-.18-1.4-.27-2.07-.27Z"/>
  <path class="cls-2" d="M186.06,143.63c-4.49,0-8.7-1.76-11.84-4.92-3.14-3.16-4.87-7.38-4.85-11.89,0-.06,0-.12,0-.19.13-9.16,7.59-16.59,16.71-16.59,9.19.04,16.88,7.77,16.85,16.86-.03,9.22-7.58,16.72-16.83,16.72h-.03ZM186.02,117.79c-2.39.02-4.65.99-6.34,2.73-1.69,1.73-2.61,4.02-2.59,6.43.04,5.02,4,8.94,9.01,8.94,2.5-.02,4.78-.99,6.5-2.74,1.7-1.73,2.62-3.99,2.59-6.36-.07-4.88-4.22-9-9.08-9,0,0-.08,0-.09,0Z"/>
  <path class="cls-2" d="M113.48,81.83c-4.44-.09-8.63-1.96-11.78-5.25-3.13-3.27-4.8-7.5-4.7-11.89.21-9.2,7.65-16.4,16.92-16.4h.24c4.46.07,8.6,1.85,11.67,5.02,3.11,3.21,4.78,7.49,4.7,12.05-.16,9.09-7.66,16.48-16.72,16.48h-.34ZM113.82,56.02c-5.01,0-9.09,4.02-9.1,8.97-.01,4.91,4.12,9.09,9.03,9.12h0c5,0,9.03-4.06,9.05-9.04.01-2.46-.9-4.75-2.58-6.43-1.67-1.68-3.94-2.61-6.39-2.62h-.02Z"/>
</svg>