<?xml version="1.0" encoding="UTF-8"?>
<svg id="_圖層_1" data-name=" 圖層 1" xmlns="http://www.w3.org/2000/svg" version="1.1" viewBox="0 0 300 300">
  <defs>
    <style>
      .cls-1 {
        fill: #d91023;
        stroke-width: 0px;
      }
    </style>
  </defs>
  <path class="cls-1" d="M.7,165v-4.7c1.3-3.1,3.3-5.3,6.3-6.9,51-26.6,102-53.2,152.9-79.8,42.8-22.4,85.7-44.8,128.5-67.2h4.7c6.5,3.6,7.6,5.8,6.5,13.2-1.2,8.2-2.4,16.4-3.6,24.6-3.8,25.5-7.6,51-11.4,76.6-3.8,25.6-7.6,51.2-11.4,76.8-2.5,16.7-5,33.3-7.5,50-.4,2.9-1.7,5.2-4.1,6.8-3.3,2.3-6.8,1.7-10.3.4-33-11.3-66.1-22.6-99.1-33.9-9.7-3.3-19.4-6.7-29.6-10.1,42-50.6,83.8-101,125.6-151.3-1,0-1.6.3-2.1.7-52.9,45.2-105.8,90.4-158.6,135.7-1.8,1.5-3.2,1.9-5.4,1.2-24-8.3-48-16.6-72.1-24.6-4.2-1.4-7.6-3.3-9.4-7.4h0Z"/>
  <path class="cls-1" d="M109.9,226.3c17.1,5.9,33.8,11.5,50.6,17.3-.5.8-.9,1.5-1.4,2.1-10.5,14.3-21,28.8-31.7,43-1.5,2-4,3.8-6.4,4.5-5.2,1.5-10.5-2.5-10.9-8-.2-2.8-.1-5.6-.1-8.5v-50.4h0Z"/>
</svg>