<?xml version="1.0" encoding="UTF-8"?>
<svg id="_圖層_1" data-name=" 圖層 1" xmlns="http://www.w3.org/2000/svg" version="1.1" viewBox="0 0 300 300">
  <defs>
    <style>
      .cls-1 {
        fill: #fff;
      }

      .cls-1, .cls-2 {
        stroke-width: 0px;
      }

      .cls-2 {
        fill: #d91023;
      }
    </style>
  </defs>
  <path class="cls-1" d="M181.28,293.81c-.5,0-1.05-.29-1.52-.81-.51-.56-.91-1.36-1.34-2.2l-3.44-6.7c-5.53-10.76-11.26-21.89-16.79-32.88-1.28-2.55-3.06-3.63-5.95-3.63-7.05.04-14.14.07-21.13.07s-14.08-.02-21.07-.07h0c-2.94,0-4.72,1.09-6,3.63-5.15,10.24-10.48,20.62-15.63,30.65l-4.63,9.02c-.35.68-.67,1.32-1.06,1.84-.73.99-1.41.99-1.64.99-.37,0-.79-.11-1.23-.33-1.18-.59-1.5-1.4-1.08-2.7.21-.65.55-1.32.92-2.03l17.88-34.96c.27-.54.53-1.08.84-1.73.18-.39.39-.82.63-1.31.29-.6.26-1.31-.08-1.89-.34-.58-.95-.94-1.62-.98-.4-.02-.77-.04-1.11-.07-.82-.05-1.52-.1-2.26-.1h-37.54c-7.61,0-10.18-2.6-10.18-10.31v-7.08c0-1.1-.9-2-2-2h-3.15c-2.37,0-4.73-.02-7.1-.04-2.38-.02-4.75-.04-7.13-.04-3.56,0-6.5.05-9.24.16-.35.01-.7.02-1.04.02-6.59,0-10.46-2.54-12.49-8.24V37.12c2.03-5.62,5.93-8.24,12.27-8.24.42,0,.84.01,1.28.03,1.73.09,3.59.13,5.83.13,1.49,0,2.99-.02,4.48-.04,1.48-.02,2.96-.04,4.43-.04h1.21c3.42.03,3.44,1.76,3.44,2.33,0,.62-.16,1.09-.51,1.45-.54.55-1.55.86-2.84.87-2.31.01-4.63.01-6.95.01h-5.59c-1.79,0-3.57,0-5.36,0-4.93.03-7.03,2.12-7.03,6.99v175.88c0,5.91,2.87,7.07,7.82,7.07h223.78c.33,0,1.93-.01,1.93-.01.3,0,.6,0,.9.01,3.04.11,3.01,1.81,2.99,2.38-.04,1.48-1,2.24-2.88,2.25-2.94.03-5.88.04-8.82.04-2.08,0-10.44-.02-12.53-.02h-3.93c-1.1,0-2,.9-2,2v6.88c0,7.96-2.58,10.51-10.62,10.52h-40.55c-.69,0-1.33.36-1.7.94s-.4,1.32-.1,1.94c.26.53.48.99.69,1.41.32.66.6,1.23.89,1.8l5.57,10.89c4.05,7.92,8.11,15.84,12.15,23.77.14.27.3.55.47.83.16.27.42.71.5.93-.39,2.18-.88,3.01-1.24,3.32-.25.23-.53.34-.83.34ZM206.34,242.98c.2,0,.39,0,.58.01h.27c1.31,0,2.36-.38,3.11-1.16.77-.79,1.14-1.92,1.1-3.34-.05-1.78-.04-3.58-.03-5.48,0-.79,0-1.6,0-2.43.02-.3-.03-.6-.15-.88-.31-.75-1.03-1.24-1.84-1.24H52.93c-1.1,0-2,.9-2,2v6.24c0,3.93,2.33,6.28,6.23,6.29h147.83c.23,0,1.35-.01,1.35-.01Z"/>
  <path class="cls-1" d="M281.25,248.24c-5.17,0-9.22-2.24-12.06-6.66-1.94-3.03-3.76-6.24-5.52-9.34-.71-1.26-1.43-2.52-2.15-3.78l-2.59-4.48c-4.45-7.69-9.05-15.64-13.51-23.5-.92-1.62-2.12-3.12-4.65-3.12-.43,0-.88.04-1.39.13-3.31.56-6.67.85-9.96.85-27.6,0-50.4-20.08-54.21-47.76-3.93-28.44,16.67-56.12,44.98-60.45,3.03-.46,6.1-.7,9.11-.7,27.89,0,50.18,19.4,54.2,47.17,2.16,14.93-1.66,28.8-11.37,41.22-.55.7-1.12,1.39-1.73,2.13-.34.42-.7.85-1.08,1.32-.1.11-.18.22-.26.35-.36.62-.36,1.38,0,2l6.77,11.72c5.79,10.01,11.53,19.95,17.26,29.91,2.97,5.16,3.49,9.58,1.63,13.9-2.51,5.84-6.65,8.8-12.63,9.07-.28.01-.55.02-.82.02ZM250.1,194.76c-.09.04-.18.09-.26.15-.82.55-1.12,1.62-.69,2.52l.21.45c.19.42.38.83.61,1.22,7.44,12.91,14.88,25.81,22.34,38.69,2.2,3.81,5.36,5.91,8.89,5.91.64,0,1.29-.07,1.94-.2,3.23-.67,5.8-2.64,7.04-5.41,1.36-3.01,1.05-6.63-.85-9.93-4.73-8.28-9.58-16.67-14.28-24.79-2.39-4.14-4.79-8.28-7.18-12.42-.48-.83-.97-1.67-1.44-2.46l-.4-.68c-.37-.64-1.04-.99-1.73-.99-.34,0-.69.09-1,.27l-2.92,1.69c-3.47,2.01-6.87,3.98-10.3,5.99ZM229.3,93.97c-13.46.03-26.02,5.28-35.36,14.78-9.33,9.49-14.45,22.22-14.41,35.83.07,27.15,22.72,49.23,50.48,49.23,27.15-.03,49.25-22.72,49.33-50.57.04-12.76-5.1-24.96-14.47-34.35-9.45-9.48-22.38-14.91-35.47-14.91h-.11Z"/>
  <path class="cls-2" d="M71.37,134.27c-2.55,0-5.06-.92-7.46-2.74-5.22-3.95-6.36-11.52-2.53-16.87,2.36-3.3,6.16-5.28,10.16-5.28,2.43,0,4.77.73,6.78,2.1.82.56,1.93,1.2,3.3,1.2.94,0,1.86-.29,2.9-.92,3.27-1.98,6.91-4.05,11.45-6.52,2.2-1.2,3.09-2.75,2.98-5.19-.16-3.65,1.08-7.05,3.49-9.57,2.3-2.41,5.42-3.73,8.78-3.73h.12c3.31.04,6.38,1.33,8.64,3.66,2.46,2.54,3.78,6.05,3.71,9.9-.04,1.67,1.09,3.73,2.51,4.59,3.46,2.11,6.9,4.04,10.55,6.1,1.05.59,2.1,1.18,3.16,1.78.35.26.77.4,1.19.4s.85-.13,1.21-.41c3.01-2.32,5.8-3.4,8.79-3.4.81,0,1.65.08,2.5.25.19.04.4.06.63.06,1.4,0,3.08-.85,3.91-1.98,3.4-4.68,6.77-9.38,10.14-14.08,3.74-5.22,7.61-10.61,11.46-15.89,1.71-2.35.76-4.25.19-5.39-.08-.15-.16-.31-.23-.48-2.16-4.71-1.78-9.07,1.14-12.96,2.52-3.36,5.72-5.06,9.5-5.06.8,0,1.64.08,2.5.23,5.05.91,8.35,3.87,9.82,8.82,1.09,3.69.37,7.62-1.98,10.76-2.34,3.13-5.98,5.01-9.75,5.01-.68,0-1.38-.06-2.06-.18-.51-.09-.96-.13-1.39-.13-2.29,0-3.51,1.32-4.33,2.48-6.96,9.84-13.96,19.63-20.82,29.08-1.52,2.09-1.63,3.94-.38,6.19,2.49,4.49,1.79,10.01-1.79,14.06-2.23,2.52-5.68,4.02-9.23,4.02-1.53,0-3.01-.27-4.41-.8-4.9-1.88-8.04-6.62-7.82-11.78.14-2.97-.9-4.8-3.48-6.12-1.97-1.02-3.95-2.16-5.87-3.26-1.85-1.06-3.77-2.17-5.71-3.18-.8-.42-1.69-.5-2.29-.5s-1.74.09-2.7.69c-2.57,1.64-4.99,2.43-7.42,2.43-2.46,0-4.9-.81-7.45-2.48-.95-.61-2.06-.7-2.64-.7s-1.4.08-2.14.48c-2,1.06-4,2.2-5.94,3.31-2.09,1.19-4.24,2.42-6.39,3.54-2.91,1.5-2.87,3.93-2.84,5.54.09,5.32-2.21,9.19-6.84,11.49-1.9.95-3.8,1.43-5.64,1.43ZM150.98,114.07c-4.06,0-7.56,3.46-7.65,7.55-.05,2.06.7,4.01,2.11,5.49,1.41,1.48,3.32,2.33,5.38,2.37h.17c4.15,0,7.63-3.35,7.76-7.47.12-4.09-3.4-7.8-7.54-7.93h-.23ZM71.41,114.06c-4.12.05-7.7,3.7-7.66,7.81.05,4.12,3.6,7.6,7.75,7.6,4.32-.04,7.74-3.52,7.7-7.75-.04-4.15-3.56-7.66-7.68-7.66-.01,0-.11,0-.12,0ZM111.25,91.49c-4.09,0-7.7,3.6-7.72,7.71-.01,4.18,3.51,7.72,7.69,7.73,4.19,0,7.74-3.51,7.76-7.67,0-4.04-3.46-7.6-7.47-7.75-.08,0-.15-.01-.23-.01h-.02ZM190.74,58.51c-4.05,0-7.55,3.46-7.62,7.56-.08,4.25,3.26,7.79,7.46,7.9h.19c4.06,0,7.59-3.45,7.69-7.54.09-4.16-3.34-7.79-7.49-7.92h-.22Z"/>
  <path class="cls-1" d="M255.73,82.7c-1.94-.06-2.16-1.87-2.17-2.65-.04-5.75-.04-11.6-.03-17.26v-21.42c0-5.78-1.96-7.73-7.8-7.73H60.35s-6.64,0-6.64,0c-1.61,0-2.82-.34-3.42-.96-.21-.21-.48-.59-.46-1.39.02-.57.07-2.3,3.81-2.3,6.28,0,12.56,0,18.84,0h31.98c.57,0,1.15-.03,1.89-.07l.92-.05c.96-.05,1.76-.78,1.88-1.74.03-.21.02-.41-.01-.61,0-.85,0-1.68-.01-2.49-.01-1.89-.03-3.67.02-5.44.15-5.25,3.5-8.72,8.54-8.83,4.31-.1,8.71-.15,13.06-.15,4.63,0,9.33.06,13.99.17,4.78.12,8.23,3.7,8.4,8.72.06,1.8.05,3.65.03,5.61,0,.92-.01,1.87-.01,2.88,0,1.1.9,2,2,2h90.34c8.9,0,12.69,3.79,12.69,12.67v36.96c.01.54.02,1.05-.04,1.51-.09.78-.51,2.6-2.34,2.6h-.08ZM132.85,14.33c-5.75,0-10.39.03-14.61.1-1.71.02-4.09,1.82-4.27,3.7-.21,2.15-.17,4.32-.14,6.42.01.77.02,1.55.02,2.33,0,1.1.9,2,2,2h30.64c.53,0,1.04-.21,1.41-.59s.6-.89.6-1.42v-7.76c0-2.92-1.75-4.74-4.57-4.76h-2.57c-2.84-.01-5.68-.02-8.51-.02Z"/>
  <path class="cls-2" d="M109.75,203.39c-2.03,0-4.06,0-6.09-.03-2.81-.03-3.54-.74-3.55-3.44-.04-19.35-.04-38.96,0-58.31,0-2.46.55-3.34,3.62-3.38,2.11-.03,4.22-.04,6.33-.04s4.4,0,6.59.02h1.47c3.7.02,4.26.57,4.28,4.19.02,6.35.01,12.7,0,19.05,0,3.18,0,6.35,0,9.52,0,.07,0,.14.01.2v9.12c0,6.22,0,12.44,0,18.67,0,3.85-.53,4.38-4.34,4.39h-2.94c-1.79.01-3.58.02-5.37.02ZM107.01,143.03c-1.1,0-2,.9-2,2v51.47c0,1.1.9,2,2,2h8.53c1.1,0,2-.9,2-2v-51.47c0-1.1-.9-2-2-2h-8.53Z"/>
  <path class="cls-2" d="M148.13,203.39c-1.47,0-2.94,0-4.41,0-3.16-.02-3.84-.68-3.85-3.68-.03-11.86-.03-23.9,0-35.76,0-2.8.65-3.45,3.44-3.48,2.59-.04,5.17-.05,7.76-.05s5.18.02,7.77.05c2.68.04,3.23.61,3.27,3.36.06,4.23.04,8.54.03,12.71,0,1.81-.01,3.63-.01,5.44v16.14c0,5.08-.19,5.27-5.14,5.28h-8.85ZM146.77,165.25c-1.1,0-2,.9-2,2v29.24c0,1.1.9,2,2,2h8.47c1.1,0,2-.9,2-2v-29.24c0-1.1-.9-2-2-2h-8.47Z"/>
  <path class="cls-2" d="M70.58,203.39c-2.15,0-4.3,0-6.44-.02-3.23-.02-3.75-.85-3.76-3.5-.06-11.96-.06-24.08,0-36.05.01-2.75.64-3.35,3.54-3.39,2.38-.03,4.76-.04,7.14-.04,2.6,0,5.21.01,7.81.04,3.17.03,3.77.62,3.79,3.75.03,3.97.02,7.94,0,11.91,0,1.99,0,3.98,0,5.96v5.77c0,3.84.01,7.69,0,11.53-.02,3.45-.59,4.01-4.12,4.03-2.65.01-5.31.02-7.96.02ZM69.58,165.07c-.57,0-1.13.05-1.68.11-.25.02-.51.05-.78.07-1.05.08-1.85.95-1.85,2v29.26c0,1.1.9,2,2,2h8.53c1.1,0,2-.9,2-2v-29.43c0-1.1-.9-2-2-2h-4.19c-.68,0-1.36,0-2.03,0h0Z"/>
  <path class="cls-2" d="M190.81,203.39c-2.54,0-5.07-.01-7.61-.04-2.79-.03-3.48-.7-3.52-3.42-.04-3.51-.04-7.08,0-10.61.03-2.19.8-3.3,2.29-3.3.6,0,2.3.03,2.35,3.41.03,1.49.02,2.98,0,4.58,0,.86,0,1.74,0,2.68,0,.53.21,1.04.59,1.41s.89.6,1.42.6c1.47,0,8.23-.01,8.23-.01,1.32,0,2.62,0,3.92.01,3.31.03,3.31,1.69,3.31,2.31,0,.63,0,2.3-3.36,2.34-2.54.03-5.07.04-7.61.04Z"/>
  <path class="cls-1" d="M229.21,183.09c-19.1,0-36.78-15.68-38.59-34.24-2.01-20.58,9.43-37.36,29.14-42.75,3.39-.93,6.78-1.4,10.09-1.4,7.8,0,15.45,2.6,22.73,7.71,1.31.93,1.66,2.17.91,3.34-.45.72-1.03,1.08-1.71,1.08-.54,0-1.16-.22-1.78-.65-6.64-4.53-13.39-6.73-20.64-6.73-.37,0-.74,0-1.11.02-18.15.57-32.45,14.86-33.26,33.24-.79,17.77,12.53,33.29,30.33,35.34,1.4.16,2.81.24,4.19.24,18.49,0,33.43-14.53,34.75-33.79.01-.18,0-.35-.03-.53-.19-.96-.38-1.92-.57-2.89-.5-2.56-1.02-5.21-1.6-7.81-.2-.88-.51-1.67-.82-2.43-.21-.53-.41-1.02-.54-1.5-.17-.6-.59-2.61,1.25-3.19.35-.11.68-.17.98-.17.34,0,1.25,0,2.03,1.66,2.79,5.97,3.98,12.05,3.53,18.05-1.42,19.05-13.48,32.77-32.28,36.69-2.28.48-4.62.72-6.98.72Z"/>
</svg>