<?xml version="1.0" encoding="UTF-8"?>
<svg id="_圖層_1" data-name="圖層 1" xmlns="http://www.w3.org/2000/svg" version="1.1" xmlns:xlink="http://www.w3.org/1999/xlink" viewBox="0 0 180 40">
  <defs>
    <style>
      .cls-1 {
        fill: #292929;
      }

      .cls-1, .cls-2, .cls-3, .cls-4, .cls-5 {
        stroke-width: 0px;
      }

      .cls-2 {
        fill: none;
      }

      .cls-6 {
        clip-path: url(#clippath);
      }

      .cls-3 {
        fill: #fff;
      }

      .cls-4 {
        fill: #d91023;
      }

      .cls-5 {
        fill: #292929;
      }
    </style>
    <clipPath id="clippath">
      <path class="cls-2" d="M177.58,14.15h-21.95c-.5,0-.84-.49-.67-.96l1.71-4.57c.1-.28.37-.46.67-.46h21.95c.5,0,.84.49.67.96l-1.71,4.57c-.1.28-.37.46-.67.46Z"/>
    </clipPath>
  </defs>
  <path class="cls-5" d="M84.86,8.15h-9.31c-.19,0-.36.08-.48.22l-11.26,13.66c-.37.45-1.12.18-1.15-.42l-.57-12.83c-.02-.35-.31-.64-.67-.64h-9.61c-.26,0-.49.15-.58.39l-2.98,7.64c-.09.24-.32.39-.58.39h-9.69c-.46,0-.79-.47-.62-.89l2.59-6.63c.17-.42-.16-.89-.62-.89H14.43c-3.77,0-7.08,2.29-8.37,5.78L.03,30.27c-.13.35.14.73.52.73h4.95c.22,0,.41-.13.48-.33l4.1-11.11c1.2-3.26,4.29-5.39,7.8-5.39h12.72l-6.22,15.93c-.17.42.16.89.62.89h5.95c.26,0,.49-.15.58-.39l3.26-8.35c.09-.24.32-.39.58-.39h9.69c.46,0,.79.47.62.89l-2.87,7.35c-.17.42.16.89.62.89h6.08c.26,0,.49-.15.58-.39l4.32-11.08c.25-.64,1.2-.46,1.25.23l.7,10.61c.02.35.32.63.67.63h5.74c.19,0,.36-.08.48-.22l9.27-10.95c.47-.55,1.37,0,1.1.68l-3.75,9.59c-.17.43.16.9.63.9h5.98c.26,0,.49-.15.58-.39l8.42-21.56c.17-.43-.16-.9-.63-.9Z"/>
  <path class="cls-4" d="M87.89,8.59c.09-.24.32-.39.58-.39h19.44c1.98,0,2.96,1.59,2.18,3.58l-1.41,3.61c-.4,1.01-1.28,2.05-2.31,2.71-.28.18-.37.56-.19.86.42.66.43,1.7.09,2.58l-2.28,5.85c-.76,1.95-3.02,3.58-4.97,3.58h-18.9c-.46,0-.79-.47-.62-.89l8.38-21.47ZM97.77,24.52l.87-2.23c.17-.42-.16-.89-.62-.89h-7.35c-.26,0-.49.15-.58.39l-.87,2.23c-.17.42.16.89.62.89h7.35c.26,0,.49-.15.58-.39ZM92.89,17.11h7.35c.26,0,.49-.15.58-.39l.61-1.57c.17-.42-.16-.89-.62-.89h-7.35c-.26,0-.49.15-.58.39l-.61,1.57c-.17.42.16.89.62.89Z"/>
  <path class="cls-4" d="M153.08,8.17h-35.72c-1.98,0-4.2,1.59-4.97,3.58l-6.1,15.64c-.77,1.98.24,3.54,2.19,3.54l16.08.03c.26,0,.49-.15.58-.39l1.87-4.79c.17-.42-.16-.89-.62-.89h-10.8c-.46,0-.79-.47-.62-.89l.67-1.71c.09-.24.32-.39.58-.39h10.08c.26,0,.49-.15.58-.39l1.35-3.46c.17-.42-.16-.89-.62-.89h-8.98c-.46,0-.79-.47-.62-.89l.64-1.64c.09-.24.32-.39.58-.39h15.63c.46,0,.79.47.62.89l-5.85,14.99c-.17.42.16.89.62.89h5.95c.26,0,.49-.15.58-.39l6.24-15.99c.09-.24.32-.39.58-.39h7.7c.26,0,.49-.15.58-.39l1.86-4.76c.17-.42-.16-.89-.62-.89Z"/>
  <path class="cls-4" d="M12.18,20.58l-3.64,9.87c-.16.42.17.88.62.88h4.98c.26,0,.49-.16.58-.4l1.95-5.3c.8-2.17,2.86-3.59,5.19-3.59h3.49c.26,0,.49-.16.58-.4l1.54-4.17c.16-.42-.17-.88-.62-.88h-8.91c-2.6,0-4.88,1.58-5.77,3.98Z"/>
  <path class="cls-1" d="M164.22,26.18l-.5,1.41c-.71,1.99-2.89,3.6-4.86,3.6h-9.64c-.42,0-.64-.34-.49-.77l.71-1.98c.15-.42.61-.77,1.04-.77h8.87c.25,0,.53-.2.62-.46l.31-.87c.09-.25-.04-.46-.29-.46h-8.27c-.55,0-.83-.46-.63-1.01l2.15-6.12c.26-.73,1.05-1.33,1.77-1.33l10.75-.02h0s.39,0,.39,0c.42,0,.64.34.49.76l-.74,2.08c-.15.42-.61.77-1.04.77h-8.08c-.25,0-.53.21-.62.46l-.23.65c-.09.25.04.46.29.46h5.7c1.98,0,3.01,1.61,2.3,3.59Z"/>
  <path class="cls-1" d="M171.74,31.22h-2.55c-.42,0-.64-.34-.49-.77l3.2-9c.09-.25-.04-.46-.29-.46h-1.04c-.42,0-.64-.34-.49-.77l.74-2.08c.15-.42.61-.77,1.03-.77h4.8c.42,0,.64.34.49.77l-4.38,12.31c-.15.42-.61.76-1.03.76Z"/>
  <g class="cls-6">
    <g>
      <rect class="cls-4" x="146.39" y="8.72" width="25.77" height="7.35" transform="translate(93 157.75) rotate(-69.94)"/>
      <rect class="cls-4" x="160.19" y="13.8" width="25.77" height="7.35" transform="translate(97.29 174.05) rotate(-69.94)"/>
      <rect class="cls-3" x="153.29" y="11.24" width="25.77" height="7.35" transform="translate(95.16 165.89) rotate(-69.94)"/>
    </g>
  </g>
</svg>