<?xml version="1.0" encoding="UTF-8"?>
<svg id="_圖層_1" data-name=" 圖層 1" xmlns="http://www.w3.org/2000/svg" version="1.1" viewBox="0 0 448 512">
  <defs>
    <style>
      .cls-1 {
        fill: #8d8d8d;
        stroke-width: 0px;
      }
    </style>
  </defs>
  <path class="cls-1" d="M384,31.5H64C28.7,31.5,0,60.2,0,95.5v320c0,35.3,28.7,64,64,64h320c35.3,0,64-28.7,64-64V95.5c0-35.3-28.7-64-64-64ZM389.4,148.1c-5,52.9-26.8,181.2-37.9,240.4-4.7,25.1-13.9,33.4-22.8,34.2-19.4,1.8-34.1-12.8-53-25.2-29.4-19.3-46.1-31.3-74.6-50.2-33-21.7-11.6-33.7,7.1-53.3,5-5.1,90.5-82.9,92.1-89.9.3-.9.4-4.2-1.6-5.9s-4.9-1.1-6.9-.7c-3,.7-50,31.7-141,93.2-13.3,9.2-25.3,13.6-36.3,13.3-12-.3-34.9-6.7-52-12.3-20.9-6.7-37.6-10.4-36.1-22,.7-6.1,9-12.1,24.9-18.5,97.5-42.5,162.5-70.4,195-84,92.9-38.6,112.2-45.3,124.7-45.6,2.8,0,8.9.7,12.9,3.9,2.7,2.3,4.3,5.5,4.7,9,.7,4.4.9,8.9.7,13.3h0Z"/>
</svg>