<?xml version="1.0" encoding="UTF-8"?>
<svg id="_圖層_1" data-name=" 圖層 1" xmlns="http://www.w3.org/2000/svg" version="1.1" viewBox="0 0 448 512">
  <defs>
    <style>
      .cls-1 {
        fill: #8d8d8d;
        stroke-width: 0px;
      }
    </style>
  </defs>
  <path class="cls-1" d="M383.8,32H63.8C28.5,32-.2,60.7-.2,96v320c0,35.3,28.7,64,64,64h320c35.3,0,64-28.7,64-64V96c0-35.3-28.7-64-64-64ZM224.7,440.7h0c-31.2,0-61.9-7.7-89.1-22.5l-98.7,26.1,26.3-96.5c-16.3-28.3-24.9-60.3-25-93.1-.1-102.7,83.3-186.4,186-186.5,49.8,0,96.6,19.3,131.8,54.5s56.4,81.9,56.5,131.7c.1,102.7-85.2,186.4-187.8,186.5Z"/>
  <path class="cls-1" d="M224.3,99.5c-85.4.1-154.8,69.7-154.7,155,0,29.3,8.2,57.7,23.8,82.4l3.7,5.9-15.5,57.2,58.6-15.4,5.6,3.3c23.8,14.1,51,21.5,78.9,21.5,85.3-.1,156.5-69.7,156.4-155.1,0-41.4-18-80.2-47.2-109.4s-68.1-45.3-109.5-45.3ZM315.6,320.9c-3.8,10.9-22.4,20.8-31.4,22.2-14.8,2.2-26.3,1.1-55.9-11.6-46.8-20.2-77.3-67.1-79.6-70.2-2.3-3.1-19-25.2-19-48.1,0-22.9,12-34.2,16.2-38.9,4.3-4.6,9.3-5.8,12.4-5.8,3.1,0,6.2,0,8.9.2,2.9.2,6.7-1.1,10.5,8,3.9,9.3,13.2,32.2,14.4,34.6s1.9,5,.4,8.1c-8.9,17.8-18.4,17.2-13.6,25.4,18.1,30.9,36.1,41.7,63.4,55.3,4.6,2.3,7.4,1.9,10.1-1.2,2.8-3.2,11.6-13.6,14.7-18.3,3.1-4.7,6.2-4,10.5-2.4,4.3,1.5,27.2,12.7,31.8,15.1,4.6,2.3,7.7,3.4,8.8,5.5,1.2,1.9,1.2,11.2-2.7,22.2Z"/>
</svg>